# xmcd
# 
# Track frame offsets:
#     150
#     13721
#     31356
#     52266
# 
# Disc length: 845
# 
# Revision: 0
# Processed by: cddbd v1.5.2PL0 Copyright (c) Steve Scherf et al.
# Submitted via: BonkEnc v1.0.8
# 
DISCID=2f034b04
DTITLE=Botanica - 2006 Berlin Hi-Fi
DYEAR=2006
DGENRE=
TTITLE0=Berlin Hi-Fi
TTITLE1=I'm Lifting
TTITLE2=I Desire
TTITLE3=Eleganza and Wines (Reprise)
EXTD=
EXTT0=
EXTT1=
EXTT2=
EXTT3=
PLAYORDER=
